{"title":"Falcon Rising 2014 DVDRIP XVID AC3 ACAB","uid":11000111,"size":1388752760,"categoryP":"video","categoryS":"movies","magnet":"?xt=urn:btih:f71058de96440d5f709b0c2fa2f06b32956bb543&amp;dn=Falcon+Rising+2014+DVDRIP+XVID+AC3+ACAB&amp;tr=udp%3A%2F%2Ftracker.openbittorrent.com%3A80&amp;tr=udp%3A%2F%2Fopen.demonii.com%3A1337&amp;tr=udp%3A%2F%2Ftracker.coppersurfer.tk%3A6969&amp;tr=udp%3A%2F%2Fexodus.desync.com%3A6969","seeders":5,"leechers":1,"uploader":"xxxlavalxxx","files":-1,"time":1410126140,"description":"[IMG]http://i.imgur.com/0IrPFWS.jpg[/IMG]\n\n &lt;a href=&quot;\nhttp://www.imdb.com/title/tt2295722/&quot; rel=&quot;nofollow&quot; target=&quot;_NEW&quot;&gt;\nhttp://www.imdb.com/title/tt2295722/&lt;/a&gt;\n\n\nChapman is an ex-marine in Brazil's slums, battling the yakuza outfit who attacked his sister and left her for dead.\n\nDirector: Ernie Barbarash\nWriter: Y.T. Parazi\nStars: Neal McDonough, Michael Jai White, Laila Ali \nGenres: Action | Adventure\nCountry: USA\nLanguage: English\n\n\n\nFormat                                   : AVI\nFormat/Info                              : Audio Video Interleave\nFile size                                : 1.27 GiB\nDuration                                 : 1h 38mn\nOverall bit rate                         : 1 845 Kbps\nWriting library                          : VirtualDub build 30091/release\n\nVideo\nID                                       : 0\nFormat                                   : MPEG-4 Visual\nFormat profile                           : Advanced Simple@L5\nFormat settings, BVOP                    : 2\nFormat settings, QPel                    : No\nFormat settings, GMC                     : No warppoints\nFormat settings, Matrix                  : Default (H.263)\nMuxing mode                              : Packed bitstream\nCodec ID                                 : XVID\nCodec ID/Hint                            : XviD\nDuration                                 : 1h 38mn\nBit rate                                 : 1 644 Kbps\nWidth                                    : 720 pixels\nHeight                                   : 400 pixels\nDisplay aspect ratio                     : 16:9\nFrame rate                               : 23.976 fps\nColor space                              : YUV\nChroma subsampling                       : 4:2:0\nBit depth                                : 8 bits\nScan type                                : Progressive\nCompression mode                         : Lossy\nBits/(Pixel*Frame)                       : 0.238\nStream size                              : 1.13 GiB (89%)\nWriting library                          : XviD 65\n\nAudio\nID                                       : 1\nFormat                                   : AC-3\nFormat/Info                              : Audio Coding 3\nMode extension                           : CM (complete main)\nFormat settings, Endianness              : Big\nCodec ID                                 : 2000\nDuration                                 : 1h 38mn\nBit rate mode                            : Constant\nBit rate                                 : 192 Kbps\nChannel(s)                               : 2 channels\nChannel positions                        : Front: L R\nSampling rate                            : 48.0 KHz\nBit depth                                : 16 bits\nCompression mode                         : Lossy\nStream size                              : 136 MiB (10%)\n\nSource---DVD - Titleset 1 thx bro\n\n\n\nscreens\n &lt;a href=&quot;\nhttp://i.imgur.com/R0bEWLK.png&quot; rel=&quot;nofollow&quot; target=&quot;_NEW&quot;&gt;\nhttp://i.imgur.com/R0bEWLK.png&lt;/a&gt; &lt;a href=&quot;\nhttp://i.imgur.com/sGRhzhF.png&quot; rel=&quot;nofollow&quot; target=&quot;_NEW&quot;&gt;\nhttp://i.imgur.com/sGRhzhF.png&lt;/a&gt; &lt;a href=&quot;\nhttp://i.imgur.com/6VyFmnc.png&quot; rel=&quot;nofollow&quot; target=&quot;_NEW&quot;&gt;\nhttp://i.imgur.com/6VyFmnc.png&lt;/a&gt; &lt;a href=&quot;\nhttp://i.imgur.com/hwUCJfQ.png&quot; rel=&quot;nofollow&quot; target=&quot;_NEW&quot;&gt;\nhttp://i.imgur.com/hwUCJfQ.png&lt;/a&gt;\n","torrent":{"xt":"urn:btih:f71058de96440d5f709b0c2fa2f06b32956bb543","amp;dn":"Falcon+Rising+2014+DVDRIP+XVID+AC3+ACAB","amp;tr":["udp%3A%2F%2Ftracker.openbittorrent.com%3A80","udp%3A%2F%2Fopen.demonii.com%3A1337","udp%3A%2F%2Ftracker.coppersurfer.tk%3A6969","udp%3A%2F%2Fexodus.desync.com%3A6969"],"infoHash":"f71058de96440d5f709b0c2fa2f06b32956bb543","infoHashBuffer":{"type":"Buffer","data":[247,16,88,222,150,68,13,95,112,155,12,47,162,240,107,50,149,107,181,67]},"announce":[],"urlList":[]}}